# xmcd
#
# Track frame offsets:
#	150
#	26242
#	38523
#	53339
#	62555
#	80194
#	97774
#	115835
#	130970
#	143831
#
# Disc length: 2080 seconds
#
# Revision: 1
# Processed by: cddbd v1.5.1PL0 Copyright (c) Steve Scherf et al.
# Submitted via: EasyCDDAExtractor 6.0.0.1
#
DISCID=7c081e0a
DTITLE=Wills, Tommy - Swingin' the Blues
DYEAR=1900
DGENRE=Oldies
TTITLE0=Swingin' Twistin' Medley
TTITLE1=Saxy Boogie
TTITLE2=Kansas City
TTITLE3=V.J.'s Blues
TTITLE4=Man With A Horn
TTITLE5=In a Sentimental Mood
TTITLE6=Honky Tonk
TTITLE7=Good Morning Blues
TTITLE8=Tuff Times
TTITLE9=After Hours
EXTD=
EXTT0=
EXTT1=
EXTT2=
EXTT3=
EXTT4=
EXTT5=
EXTT6=
EXTT7=
EXTT8=
EXTT9=
PLAYORDER=
